<svg width="153" height="25" viewBox="0 0 153 25" fill="none" xmlns="http://www.w3.org/2000/svg">
<path d="M23.0491 19.6181H31.0085L11.2915 0H3.33208L23.0491 19.6181Z" fill="black"/>
<path d="M15.3806 1.00369e-06L34.3875 18.9115V0H29.2439V5.97071L23.243 0L15.3806 1.00369e-06Z" fill="black"/>
<path d="M0 0.656748V19.618H5.14357V13.6473L11.1444 19.618H19.0569L0 0.656748Z" fill="black"/>
<path d="M46.7997 16.6682H51.4083V19.3704H43.2815V4.99975H46.7997V16.6682Z" fill="black"/>
<path d="M57.695 19.5342C56.5703 19.5342 55.5552 19.2954 54.65 18.8177C53.7584 18.34 53.0521 17.6577 52.5308 16.7706C52.0234 15.8835 51.7696 14.8463 51.7696 13.659C51.7696 12.4854 52.0301 11.4549 52.5514 10.5679C53.0727 9.66711 53.7859 8.97796 54.6911 8.5003C55.5964 8.02264 56.6114 7.78382 57.7361 7.78382C58.8609 7.78382 59.8758 8.02264 60.7812 8.5003C61.6864 8.97796 62.3996 9.66711 62.9208 10.5679C63.4421 11.4549 63.7026 12.4854 63.7026 13.659C63.7026 14.8327 63.4352 15.8698 62.9002 16.7706C62.3791 17.6577 61.6589 18.34 60.7399 18.8177C59.8347 19.2954 58.8197 19.5342 57.695 19.5342ZM57.695 16.5045C58.3671 16.5045 58.9363 16.2588 59.4026 15.7675C59.8827 15.2762 60.1227 14.5734 60.1227 13.659C60.1227 12.7446 59.8896 12.0418 59.4233 11.5505C58.9706 11.0592 58.4082 10.8136 57.7361 10.8136C57.0503 10.8136 56.4811 11.0592 56.0285 11.5505C55.5758 12.0282 55.3495 12.731 55.3495 13.659C55.3495 14.5734 55.569 15.2762 56.0079 15.7675C56.4606 16.2588 57.0229 16.5045 57.695 16.5045Z" fill="black"/>
<path d="M69.3137 7.78382C70.1229 7.78382 70.8294 7.94758 71.4328 8.27512C72.0501 8.60266 72.5233 9.03257 72.8525 9.56479V7.94758H76.3707V19.35C76.3707 20.4008 76.158 21.3493 75.7328 22.1954C75.3214 23.0552 74.6836 23.7376 73.8194 24.2425C72.969 24.7475 71.906 25 70.6305 25C68.9296 25 67.5512 24.5973 66.495 23.7921C65.4389 23.0006 64.8354 21.9225 64.6844 20.5577H68.1615C68.2712 20.9945 68.5319 21.3356 68.9433 21.5813C69.3549 21.8406 69.8623 21.9702 70.4659 21.9702C71.1928 21.9702 71.7688 21.7588 72.1941 21.3356C72.633 20.9262 72.8525 20.2644 72.8525 19.35V17.7327C72.5095 18.265 72.0363 18.7017 71.4328 19.0429C70.8294 19.3704 70.1229 19.5342 69.3137 19.5342C68.3673 19.5342 67.51 19.2954 66.7419 18.8177C65.9738 18.3264 65.3634 17.6373 64.9108 16.7501C64.4719 15.8494 64.2524 14.8122 64.2524 13.6386C64.2524 12.4649 64.4719 11.4345 64.9108 10.5474C65.3634 9.66038 65.9738 8.97796 66.7419 8.5003C67.51 8.02264 68.3673 7.78382 69.3137 7.78382ZM72.8525 13.659C72.8525 12.7856 72.6056 12.0964 72.1118 11.5914C71.6318 11.0864 71.0419 10.834 70.3424 10.834C69.6429 10.834 69.0463 11.0864 68.5525 11.5914C68.0723 12.0827 67.8323 12.7651 67.8323 13.6386C67.8323 14.512 68.0723 15.208 68.5525 15.7266C69.0463 16.2316 69.6429 16.484 70.3424 16.484C71.0419 16.484 71.6318 16.2316 72.1118 15.7266C72.6056 15.2216 72.8525 14.5324 72.8525 13.659Z" fill="black"/>
<path d="M83.5246 19.5342C82.3998 19.5342 81.3849 19.2954 80.4796 18.8177C79.5881 18.34 78.8816 17.6577 78.3605 16.7706C77.853 15.8835 77.5992 14.8463 77.5992 13.659C77.5992 12.4854 77.8598 11.4549 78.381 10.5679C78.9022 9.66711 79.6154 8.97796 80.5208 8.5003C81.426 8.02264 82.4411 7.78382 83.5657 7.78382C84.6905 7.78382 85.7055 8.02264 86.6107 8.5003C87.516 8.97796 88.2293 9.66711 88.7504 10.5679C89.2717 11.4549 89.5323 12.4854 89.5323 13.659C89.5323 14.8327 89.2648 15.8698 88.7299 16.7706C88.2087 17.6577 87.4886 18.34 86.5696 18.8177C85.6643 19.2954 84.6493 19.5342 83.5246 19.5342ZM83.5246 16.5045C84.1967 16.5045 84.7659 16.2588 85.2322 15.7675C85.7124 15.2762 85.9524 14.5734 85.9524 13.659C85.9524 12.7446 85.7192 12.0418 85.2528 11.5505C84.8002 11.0592 84.2379 10.8136 83.5657 10.8136C82.88 10.8136 82.3107 11.0592 81.8581 11.5505C81.4054 12.0282 81.1791 12.731 81.1791 13.659C81.1791 14.5734 81.3986 15.2762 81.8375 15.7675C82.2901 16.2588 82.8525 16.5045 83.5246 16.5045Z" fill="black"/>
<path d="M92.5509 6.76027C91.9337 6.76027 91.4262 6.58284 91.0284 6.22801C90.6444 5.85953 90.4523 5.40918 90.4523 4.87692C90.4523 4.33103 90.6444 3.88066 91.0284 3.52583C91.4262 3.15735 91.9337 2.97311 92.5509 2.97311C93.1544 2.97311 93.6482 3.15735 94.0323 3.52583C94.43 3.88066 94.6289 4.33103 94.6289 4.87692C94.6289 5.40918 94.43 5.85953 94.0323 6.22801C93.6482 6.58284 93.1544 6.76027 92.5509 6.76027ZM94.2997 7.94758V19.3704H90.7815V7.94758H94.2997Z" fill="black"/>
<path d="M99.7501 9.56479C100.094 9.03257 100.566 8.60266 101.17 8.27512C101.773 7.94758 102.48 7.78382 103.289 7.78382C104.236 7.78382 105.093 8.02264 105.861 8.5003C106.629 8.97796 107.232 9.66038 107.672 10.5474C108.124 11.4345 108.35 12.4649 108.35 13.6386C108.35 14.8122 108.124 15.8494 107.672 16.7501C107.232 17.6373 106.629 18.3264 105.861 18.8177C105.093 19.2954 104.236 19.5342 103.289 19.5342C102.494 19.5342 101.787 19.3704 101.17 19.0429C100.566 18.7154 100.094 18.2923 99.7501 17.7736V24.8158H96.2321V7.94758H99.7501V9.56479ZM104.771 13.6386C104.771 12.7651 104.524 12.0827 104.03 11.5914C103.55 11.0864 102.953 10.834 102.24 10.834C101.54 10.834 100.944 11.0864 100.45 11.5914C99.9701 12.0964 99.7302 12.7856 99.7302 13.659C99.7302 14.5324 99.9701 15.2216 100.45 15.7266C100.944 16.2316 101.54 16.484 102.24 16.484C102.94 16.484 103.536 16.2316 104.03 15.7266C104.524 15.208 104.771 14.512 104.771 13.6386Z" fill="black"/>
<path d="M114.249 19.5342C113.247 19.5342 112.356 19.3637 111.575 19.0224C110.793 18.6813 110.175 18.2172 109.723 17.6304C109.27 17.03 109.016 16.3611 108.962 15.6242H112.439C112.48 16.02 112.665 16.3407 112.995 16.5864C113.323 16.832 113.728 16.9549 114.208 16.9549C114.647 16.9549 114.983 16.873 115.217 16.7092C115.464 16.5318 115.587 16.3066 115.587 16.0337C115.587 15.7061 115.415 15.4673 115.072 15.3171C114.729 15.1534 114.173 14.976 113.406 14.7849C112.582 14.5938 111.897 14.3959 111.348 14.1913C110.799 13.9729 110.327 13.6386 109.928 13.1882C109.531 12.7242 109.332 12.1032 109.332 11.3253C109.332 10.6702 109.51 10.0766 109.867 9.54428C110.237 8.99843 110.773 8.56854 111.471 8.25465C112.185 7.94076 113.028 7.78382 114.002 7.78382C115.443 7.78382 116.575 8.13865 117.397 8.84832C118.234 9.55795 118.714 10.4997 118.837 11.6733H115.587C115.531 11.2775 115.353 10.9636 115.051 10.7316C114.764 10.4997 114.379 10.3837 113.9 10.3837C113.488 10.3837 113.173 10.4655 112.953 10.6293C112.734 10.7794 112.624 10.991 112.624 11.2639C112.624 11.5914 112.796 11.8371 113.138 12.0008C113.494 12.1646 114.044 12.3284 114.785 12.4921C115.635 12.7105 116.328 12.9288 116.862 13.1473C117.397 13.3519 117.864 13.6931 118.261 14.1708C118.673 14.6348 118.885 15.2625 118.899 16.0541C118.899 16.7229 118.707 17.3234 118.323 17.8556C117.952 18.3742 117.411 18.7836 116.698 19.0838C115.998 19.3841 115.182 19.5342 114.249 19.5342Z" fill="black"/>
<path d="M131.77 7.94758V19.3704H128.252V17.8147C127.896 18.3196 127.409 18.729 126.792 19.0429C126.188 19.3432 125.516 19.4932 124.776 19.4932C123.898 19.4932 123.122 19.3022 122.45 18.9201C121.778 18.5243 121.258 17.9579 120.887 17.2209C120.517 16.484 120.332 15.6175 120.332 14.6212V7.94758H123.829V14.1503C123.829 14.9146 124.028 15.5082 124.425 15.9313C124.824 16.3544 125.358 16.5659 126.03 16.5659C126.716 16.5659 127.258 16.3544 127.656 15.9313C128.054 15.5082 128.252 14.9146 128.252 14.1503V7.94758H131.77Z" fill="black"/>
<path d="M148.329 7.82476C149.756 7.82476 150.887 8.25465 151.724 9.11439C152.575 9.97418 153 11.1684 153 12.6969V19.3704H149.502V13.1677C149.502 12.4307 149.304 11.8644 148.905 11.4686C148.521 11.0592 147.987 10.8545 147.301 10.8545C146.615 10.8545 146.073 11.0592 145.675 11.4686C145.292 11.8644 145.099 12.4307 145.099 13.1677V19.3704H141.601V13.1677C141.601 12.4307 141.403 11.8644 141.005 11.4686C140.621 11.0592 140.086 10.8545 139.4 10.8545C138.714 10.8545 138.173 11.0592 137.774 11.4686C137.391 11.8644 137.199 12.4307 137.199 13.1677V19.3704H133.681V7.94758H137.199V9.38055C137.555 8.9029 138.021 8.5276 138.598 8.25465C139.174 7.96806 139.825 7.82476 140.552 7.82476C141.416 7.82476 142.185 8.009 142.857 8.37747C143.542 8.74595 144.077 9.27139 144.461 9.95377C144.86 9.32597 145.401 8.81419 146.087 8.41842C146.773 8.02264 147.521 7.82476 148.329 7.82476Z" fill="black"/>
</svg>
